<?xml version="1.0" standalone="no"?><!DOCTYPE svg PUBLIC "-//W3C//DTD SVG 1.1//EN" "http://www.w3.org/Graphics/SVG/1.1/DTD/svg11.dtd"><svg t="1534910673144" class="icon" style="" viewBox="0 0 1024 1024" version="1.1" xmlns="http://www.w3.org/2000/svg" p-id="10087" data-spm-anchor-id="a313x.7781069.0.i2" xmlns:xlink="http://www.w3.org/1999/xlink" width="200" height="200"><defs><style type="text/css"></style></defs><path d="M991.5505781333334 799.4936885333334l-93.75288959999999-112.13937706666667v-204.7544896c0-168.07253333333335-119.46666666666667-314.4817781333333-278.1184-361.35822186666667v-41.00551146666667c0-50.06222186666666-39.367111466666664-90.79466666666667-87.79093333333333-90.79466666666667h-39.91324373333333c-48.3328 0-87.69991146666666 40.732444799999996-87.69991146666666 90.79466666666667v41.00551146666667c-158.6517333333333 46.876444799999994-278.16391146666666 193.2856885333333-278.16391146666666 361.35822186666667v204.7544896l-93.70737706666667 112.13937706666667A31.948800000000002 31.948800000000002 0 0 0 56.88888853333333 851.8314666666666h910.2222229333333a31.857778133333333 31.857778133333333 0 0 0 24.439466666666664-52.33777813333334zM467.99075519999997 80.23608853333337c0-14.9276448 10.740621866666666-27.0336 23.9388448-27.0336h39.958755200000006c13.2892448 0 24.029866666666663 12.151466666666666 24.029866666666663 27.0336v27.98933333333333c-14.472533333333333-1.7294218666666665-29.081599999999998-2.821688533333333-43.91822186666666-2.821688533333333s-29.4912 1.0922666666666667-43.96373333333334 2.776178133333333v-27.943822933333333zM125.01902186666666 788.0704000000001l57.435022933333336-68.72177813333333a31.948800000000002 31.948800000000002 0 0 0 7.418310399999999-20.434488533333333v-216.31431146666668c0-169.89297813333332 147.50151146666667-313.4805333333333 322.1276448-313.4805333333333 174.58062186666666 0 322.1276448 143.54204479999999 322.1276448 313.4805333333333v216.31431146666668c0 7.463821866666667 2.6396448 14.700088533333334 7.418310399999999 20.434488533333333l57.480533333333334 68.72177813333333H125.01902186666666zM614.4 889.0140448a31.857778133333333 31.857778133333333 0 0 0-31.857778133333333 31.857777066666664c0 19.342221866666666-30.173866666666665 40.914488533333326-70.54222186666667 40.9144896-41.597155199999996 0-70.54222186666667-21.572266666666668-70.54222186666667-40.9144896a31.857778133333333 31.857778133333333 0 1 0-63.71555626666667 0c0 58.663821866666666 58.9824 104.67555519999999 134.3032896 104.67555626666667s134.25777813333335-46.01173333333334 134.25777706666665-104.67555626666667a31.948800000000002 31.948800000000002 0 0 0-31.903288533333335-31.857777066666664z" p-id="10088"></path></svg>