<?xml version="1.0" standalone="no"?><!DOCTYPE svg PUBLIC "-//W3C//DTD SVG 1.1//EN" "http://www.w3.org/Graphics/SVG/1.1/DTD/svg11.dtd"><svg t="1532145762380" class="icon" style="" viewBox="0 0 1024 1024" version="1.1" xmlns="http://www.w3.org/2000/svg" p-id="11764" xmlns:xlink="http://www.w3.org/1999/xlink" width="200" height="200"><defs><style type="text/css"></style></defs><path d="M810.7 960H213.4C131.2 960 64 893.2 64 811.2V214.4C64 132.3 131.2 64 213.4 64h597.3C892.9 64 960 132.3 960 214.4v596.8c0 82-67.1 148.8-149.3 148.8z m82.7-707.1c0-68.2-54.9-122.5-122-122.5H252.7c-96.1 0-122 26.3-122 122.5v518.2c0 97.7 25.9 122.5 122 122.5h518.7c94.6 0 122-31 122-122.5V252.9zM703.1 421.5l64.5-49.5c7.6-5.9 18.7-3.5 23.3 5l1.4 2.4c3.7 6.8 1.8 15.2-4.2 19.9l-53.9 41.4c-7.6 5.9-18.7 3.5-23.3-4.9l-7.8-14.3z m-95.5-30.3l55.6-107.7c3.9-7.5 13.1-10.6 20.7-6.9l4.5 2.2c8 3.9 11.2 13.6 7 21.5l-49.6 92.4c-3.9 7.3-12.8 10.2-20.3 6.8l-17.9-8.3z m-110.4-166h15.6c8.7 0 15.6 7 15.6 15.6v134.7c0 8.6-7 15.6-15.6 15.6-8.7 0-15.6-7-15.6-15.6V225.2z m-173 59.1l17.8-8.1c7.6-3.5 16.6-0.4 20.4 7l48.2 93.5c4.1 7.9 0.7 17.7-7.4 21.4l-2.9 1.3c-7.6 3.5-16.6 0.4-20.4-7.1l-55.7-108z m-3.3 167.6l-83.2-52.8c-6.9-4.4-9.3-13.4-5.3-20.7l1.5-2.8c4.3-8 14.5-10.6 22.2-5.8l69.1 43.8c7 4.4 9.3 13.4 5.3 20.7l-9.6 17.6zM260 555.6c37.9-84.6 143.3-150 252-150 104 0 211.2 62.1 252 141.9 1.1 2.1 1.6 4.5 1.6 7v228c0 8.7-7 15.7-15.6 15.7H274.3c-8.8 0-15.8-7.2-15.6-16l1.3-60.6v-166z m457.9 197.8h1.7V576.2c0-3.2-1-6.3-2.8-8.9-68.2-100.4-166-102.8-203.4-100.7-8.2 0.5-14.7 7.3-14.7 15.5l-1.5 255.5c-0.1 8.7 7 15.7 15.7 15.7h205v0.1z"  p-id="11765"></path></svg>