<?xml version="1.0" standalone="no"?><!DOCTYPE svg PUBLIC "-//W3C//DTD SVG 1.1//EN" "http://www.w3.org/Graphics/SVG/1.1/DTD/svg11.dtd"><svg t="1537405941467" class="icon" style="" viewBox="0 0 1024 1024" version="1.1" xmlns="http://www.w3.org/2000/svg" p-id="4037" xmlns:xlink="http://www.w3.org/1999/xlink" width="200" height="200"><defs><style type="text/css"></style></defs><path d="M409.475122 579.559024l-70.680976 70.680976A24.97561 24.97561 0 0 0 374.634146 685.45561l70.680976-70.680976a24.97561 24.97561 0 0 0-35.340488-35.340488zM257.498537 355.902439a24.97561 24.97561 0 0 0-30.595122-17.607805l-48.202927 12.487805a24.97561 24.97561 0 0 0 12.487805 48.202927l48.202927-12.487805a24.97561 24.97561 0 0 0 18.107317-30.595122zM667.722927 766.126829A24.97561 24.97561 0 0 0 636.878049 783.734634l-12.487805 48.202927a24.97561 24.97561 0 0 0 48.202927 12.487805l12.487805-48.202927a24.97561 24.97561 0 0 0-17.358049-30.09561zM340.167805 481.654634a24.97561 24.97561 0 0 0-34.091707-9.116097l-64.936586 37.463414a24.97561 24.97561 0 1 0 24.97561 43.207805l64.936585-37.463415a24.97561 24.97561 0 0 0 9.116098-34.091707zM542.969756 684.456585a24.97561 24.97561 0 0 0-34.091707 9.116098l-37.463415 64.936585a24.97561 24.97561 0 1 0 43.207805 24.97561l37.463415-64.936585a24.97561 24.97561 0 0 0-9.116098-34.091708zM772.620488 428.456585l43.082927-43.082926a49.95122 49.95122 0 0 0 0-70.680976l-106.021464-106.021463a49.95122 49.95122 0 0 0-70.680975 0l-43.207805 43.207804c-85.416585-59.192195-174.829268-91.285854-249.756098-91.285853a191.937561 191.937561 0 0 0-107.52 29.221463 24.97561 24.97561 0 0 0-3.621463 38.462439l561.951219 561.95122a24.97561 24.97561 0 0 0 17.857561 7.367805 24.97561 24.97561 0 0 0 20.604878-10.989269c55.320976-84.792195 28.846829-226.279024-62.68878-358.150244zM674.341463 244.011707L780.362927 349.658537l-35.340488 35.340487-106.021463-106.021463z m132.245854 485.400976l-512-512a168.210732 168.210732 0 0 1 51.075122-7.242927c94.782439 0 213.916098 60.19122 310.821463 157.096585C788.729756 499.512195 833.061463 645.619512 806.587317 729.412683z" p-id="4038"></path><path d="M815.703415 244.011707a24.97561 24.97561 0 1 0-35.340488-35.340487l-35.340488 35.340487 35.340488 35.340488z" p-id="4039"></path></svg>