<?xml version="1.0" standalone="no"?><!DOCTYPE svg PUBLIC "-//W3C//DTD SVG 1.1//EN" "http://www.w3.org/Graphics/SVG/1.1/DTD/svg11.dtd"><svg t="1534918101708" class="icon" style="" viewBox="0 0 1323 1024" version="1.1" xmlns="http://www.w3.org/2000/svg" p-id="12661" xmlns:xlink="http://www.w3.org/1999/xlink" width="258.3984375" height="200"><defs><style type="text/css"></style></defs><path d="M1170.639541 447.295948V0h-82.425543v447.295948a192.326268 192.326268 0 0 0 0 376.959485v199.744567h82.425543V824.255433a192.326268 192.326268 0 0 0 0-375.585725zM1129.426769 744.85216a109.900724 109.900724 0 0 1 0-219.801449 109.900724 109.900724 0 0 1 0 219.801449zM703.561462 145.068956V0h-82.425543v145.068956a192.326268 192.326268 0 0 0 0 376.959485v500.5978h82.425543V522.028441a192.326268 192.326268 0 0 0 0-375.585726zM662.348691 442.625168a109.900724 109.900724 0 0 1 0-219.801449 109.900724 109.900724 0 0 1 0 219.801449zM236.483383 447.295948V0h-82.425543v447.295948A192.326268 192.326268 0 0 0 154.05784 824.255433v199.744567h82.425543V824.255433a192.326268 192.326268 0 0 0 0-375.585725zM195.270612 744.85216a109.900724 109.900724 0 0 1 0-219.801449 109.900724 109.900724 0 0 1 0 219.801449z" fill="" p-id="12662"></path></svg>