<?xml version="1.0" standalone="no"?><!DOCTYPE svg PUBLIC "-//W3C//DTD SVG 1.1//EN" "http://www.w3.org/Graphics/SVG/1.1/DTD/svg11.dtd"><svg t="1535010181947" class="icon" style="" viewBox="0 0 1024 1024" version="1.1" xmlns="http://www.w3.org/2000/svg" p-id="1796" xmlns:xlink="http://www.w3.org/1999/xlink" width="200" height="200"><defs><style type="text/css"></style></defs><path d="M912.211 433.693l-382.113-326.26c-0.315-0.268-0.653-0.506-0.981-0.756a21.56 21.56 0 0 0-1.807-1.75c-9.18-7.837-24.062-7.837-33.241 0l-382.277 326.4c-9.179 7.837-9.179 20.545 0 28.382s24.062 7.838 33.241 0l30.31-25.88v409.13c0 45.283 36.709 81.991 81.99 81.991h515.372c45.282 0 81.99-36.708 81.99-81.99V441.326l24.287 20.738c9.175 7.834 24.052 7.834 33.227 0 9.177-7.835 9.177-20.537 0.002-28.371zM807.844 842.959c0 19.407-15.732 35.139-35.14 35.139H526.533c0.635-1.801 0.999-3.728 0.999-5.744 0 0-5.887-46.97-5.887-94.668 0-39.196 4.185-82.807 7.566-111.637 19.6 3.35 46.48-2.398 72.248-17.103 40.83-23.299 63.384-60.236 50.379-82.501-13.005-22.265-56.647-21.427-97.476 1.873-25.66 14.642-44.093 34.67-51.026 53.058a17.528 17.528 0 0 0-2.82 3.615c-8.426-9.924-20.019-19.466-33.948-27.292-37.152-20.872-76.863-21.623-88.698-1.677s8.69 53.032 45.842 73.904c24.417 13.716 49.938 18.742 67.925 14.913-2.741 26.112-5.315 58.712-5.315 89.062 0 49.283 5.887 98.451 5.887 98.451 0 2.015 0.364 3.943 0.999 5.744H257.335c-19.407 0-35.14-15.732-35.14-35.14v-445.09h-4.731L510.63 147.553l297.214 253.77V842.96z"  p-id="1797"></path></svg>