<?xml version="1.0" standalone="no"?><!DOCTYPE svg PUBLIC "-//W3C//DTD SVG 1.1//EN" "http://www.w3.org/Graphics/SVG/1.1/DTD/svg11.dtd"><svg t="1537405623219" class="icon" style="" viewBox="0 0 1110 1024" version="1.1" xmlns="http://www.w3.org/2000/svg" p-id="2190" xmlns:xlink="http://www.w3.org/1999/xlink" width="216.796875" height="200"><defs><style type="text/css"></style></defs><path d="M772.266667 1024 123.733333 1024 123.733333 829.866667 261.6832 829.866667 261.6832 326.4 0 326.4 0 130.133333 270.933333 130.133333 270.933333 164.266667 34.133333 164.266667 34.133333 292.266667 295.816533 292.266667 295.816533 864 157.866667 864 157.866667 989.866667 738.133333 989.866667 738.133333 864 599.466667 864 599.466667 298.666667 876.8 298.666667 876.8 379.733333 1038.216533 379.733333 1038.216533 164.266667 614.4 164.266667 614.4 130.133333 1072.349867 130.133333 1072.349867 413.866667 842.666667 413.866667 842.666667 332.8 633.6 332.8 633.6 829.866667 772.266667 829.866667Z" p-id="2191"></path><path d="M282.5728 164.266667C295.150933 90.504533 359.355733 34.133333 436.616533 34.133333s141.482667 56.3712 154.043733 130.133333l34.491733 0C612.283733 71.611733 532.753067 0 436.616533 0S260.9664 71.611733 248.081067 164.266667L282.5728 164.266667z" p-id="2192"></path><path d="M977.783467 770.850133c-63.1296 0-114.4832-51.370667-114.4832-114.500267 0-57.7536 90.453333-181.777067 100.7616-195.7376l13.7216-18.568533 13.7216 18.568533C1001.813333 474.5728 1092.266667 598.596267 1092.266667 656.349867 1092.266667 719.479467 1040.913067 770.850133 977.783467 770.850133zM977.783467 500.036267c-35.5328 50.944-80.349867 125.405867-80.349867 156.3136 0 44.322133 36.0448 80.366933 80.349867 80.366933S1058.133333 700.672 1058.133333 656.349867C1058.133333 625.442133 1013.316267 550.980267 977.783467 500.036267z" p-id="2193"></path></svg>