<?xml version="1.0" standalone="no"?><!DOCTYPE svg PUBLIC "-//W3C//DTD SVG 1.1//EN" "http://www.w3.org/Graphics/SVG/1.1/DTD/svg11.dtd"><svg t="1535609218153" class="icon" style="" viewBox="0 0 1024 1024" version="1.1" xmlns="http://www.w3.org/2000/svg" p-id="3218" xmlns:xlink="http://www.w3.org/1999/xlink" width="200" height="200"><defs><style type="text/css"></style></defs><path d="M213.09952 515.46112c-20.8384-25.92768-51.26656-42.36288-85.2736-42.36288-62.53056 0-113.2288 55.30112-113.65888 123.6736 0-17.18784 12.7232-31.1296 28.42112-31.1296 15.69792 0 28.42112 13.94176 28.42112 31.1296 0.42496-33.93024 25.73312-61.40928 56.81664-61.40928 31.07328 0 56.38144 27.47904 56.8064 61.40928h0.08704l0.01536-0.15872c0.20992-31.38048 11.03872-59.93984 28.74368-81.62816l-0.37888 0.47616z m170.55744-0.01024c-20.83328-25.91744-51.26656-42.35264-85.2736-42.35264s-64.44032 16.4352-85.2736 42.36288c17.32608 21.42208 28.00128 49.66912 28.29312 80.65024 0.02048-0.70144 0.16896-0.04096 0.16896 0.66048h0.00512c0.42496-33.93024 25.728-61.40928 56.8064-61.40928s56.38656 27.47904 56.8064 61.40928h0.08704l0.01536-0.15872c0.2048-31.37024 11.0336-59.93984 28.73344-81.61792l-0.36864 0.45568z" fill="" p-id="3219"></path><path d="M213.14048 565.64224c15.04256 0 27.24352 12.86144 28.23168 29.06112-0.64512-31.02208-11.60192-59.12064-29.25056-80.44544-16.55296 22.8352-27.2896 51.456-27.38688 82.80576 0.08192-17.57184 12.76416-31.42144 28.40576-31.42144z m341.05344-50.19136c-20.82816-25.91744-51.26144-42.35264-85.26848-42.35264s-64.44032 16.4352-85.2736 42.35264c17.34144 21.44256 28.02688 49.72032 28.30336 80.73216 0.01536-0.67072 0.1536-0.07168 0.1536 0.5888h0.00512c0.42496-33.93024 25.728-61.41952 56.81152-61.41952 31.07328 0 56.38656 27.47904 56.81152 61.41952h0.0768v-0.08192c0.2048-31.40096 11.03872-59.99104 28.75904-81.69984l-0.37888 0.4608z" fill="" p-id="3220"></path><path d="M383.68768 565.64224c15.09888 0 27.33568 12.93824 28.25216 29.23008-0.60928-31.05792-11.55584-59.20256-29.21472-80.55296-16.60416 22.784-27.34592 51.4048-27.44832 82.77504 0.08192-17.60256 12.76928-31.45216 28.41088-31.45216z m341.10464 0c15.04256 0 27.22304 12.84096 28.22656 29.0304-1.4336-67.38944-51.65568-121.5744-113.536-121.5744-34.0224 0-64.45568 16.4352-85.2736 42.35264 17.34656 21.44768 28.032 49.7408 28.30848 80.75776 0.01024-0.71168 0.14336-0.1024 0.14336 0.54784h0.01536c0.41984-33.93024 25.71264-61.40928 56.8064-61.40928 31.06304 0 56.38656 27.4688 56.80128 61.40928h0.08192c0-17.18784 12.7232-31.11424 28.42624-31.11424z" fill="" p-id="3221"></path><path d="M554.24 565.64224c15.09376 0 27.33568 12.93824 28.25216 29.23008-0.62464-31.06816-11.57632-59.20768-29.25056-80.57856-16.58368 22.81984-27.33056 51.44576-27.42272 82.82624 0.04096-17.59232 12.74368-31.47776 28.42112-31.47776z m-511.64672 62.2592c15.69792 0 28.42112-13.94176 28.42112-31.1296H14.17216c0 17.18784 12.71808 31.1296 28.42112 31.1296z m0-62.2592c-15.69792 0-28.42112 13.93152-28.42112 31.1296H71.0144c0-17.2032-12.7232-31.1296-28.42112-31.1296z m142.13632 31.1296l-0.00512 0.49152c0 17.18784 12.72832 31.1296 28.42112 31.1296 15.69792 0 28.42112-13.94176 28.42112-31.1296v-0.52224l-56.83712 0.03072z" fill="" p-id="3222"></path><path d="M213.14048 565.64224c-15.6416 0-28.32896 13.83936-28.40576 30.96064l-0.00512 0.16896h56.74496c0-0.70144-0.08704-1.37216-0.1024-2.05824-0.98304-16.21504-13.184-29.07136-28.23168-29.07136z m142.13632 31.1296l-0.00512 0.49152c0 17.18784 12.72832 31.1296 28.42624 31.1296 15.6928 0 28.42112-13.94176 28.42112-31.1296l-0.00512-0.52224-56.84224 0.03072h0.00512z" fill="" p-id="3223"></path><path d="M355.28192 596.608l-0.01536 0.15872h0.00512l0.01024-0.15872z m56.74496 0.16384h0.08704c0-0.66048-0.13824-1.25952-0.16896-1.89952 0 0.64 0.08192 1.24928 0.08192 1.89952z" fill="" p-id="3224"></path><path d="M383.68768 565.64224c-15.6416 0-28.32896 13.83936-28.40576 30.96064l-0.00512 0.16896h56.74496c0-0.65024-0.0768-1.25952-0.09216-1.89952-0.90624-16.29184-13.13792-29.23008-28.24192-29.23008z m142.1312 31.1296c0.36352 16.89088 12.93824 30.4384 28.42624 30.4384 15.47264 0 28.06272-13.54752 28.42624-30.40768l-56.85248-0.03072z m0-0.08192l-0.00512 0.08192h0.00512v-0.08192z m56.76032 0.08192h0.08192c0-0.66048-0.14336-1.25952-0.15872-1.89952 0.00512 0.64 0.0768 1.24928 0.0768 1.89952z" fill="" p-id="3225"></path><path d="M554.24 565.64224c-15.67744 0-28.38016 13.89056-28.42112 31.04256v0.09216h56.75008c0-0.65024-0.06656-1.25952-0.08192-1.89952-0.91136-16.29696-13.15328-29.2352-28.24704-29.2352z m198.76864 29.04576c0.01536 0.70144 0.11776 1.3824 0.11776 2.07872h-56.77056c0.35328 16.89088 12.94336 30.44864 28.42624 30.44864 15.47264 0 28.06784-13.55776 28.42112-30.40768 0-0.75776-0.14336-1.42848-0.19456-2.11968z" fill="" p-id="3226"></path><path d="M753.00864 594.688c-0.9984-16.20992-13.17888-29.05088-28.23168-29.05088-15.6928 0-28.42112 13.94176-28.42112 31.1296h56.75008c0.02048-0.72192-0.08704-1.38752-0.1024-2.08896v0.01024z m256.82432 80.31232v-0.01024c0-17.18784-12.7232-31.1296-28.42624-31.1296-15.68768 0-28.42112 13.94176-28.42112 31.1296h-0.25088c0 34.3296-25.50272 62.24896-56.85248 62.24896-30.8224 0-55.93088-27.008-56.76544-60.53888 0.03584-0.57856 0.15872-1.12128 0.15872-1.71008 0-17.18784-12.7232-31.1296-28.43136-31.1296-15.6928 0-28.416 13.94176-28.416 31.1296h-0.26112c0 34.3296-25.4976 62.24896-56.84736 62.24896-30.80192 0-55.90016-26.98752-56.7552-60.48768 0.02048-0.5888 0.1536-1.152 0.1536-1.76128 0-17.18784-12.7232-31.1296-28.42624-31.1296s-28.42112 13.94176-28.42112 31.1296h-0.27136c0 34.3296-25.49248 62.24896-56.84224 62.24896-30.78656 0-55.86432-26.94144-56.76032-60.42112 0.0256-0.61952 0.16384-1.20832 0.16384-1.82784 0-17.18784-12.71808-31.1296-28.416-31.1296s-28.42624 13.94176-28.42624 31.1296h-0.27648c0 34.3296-25.50272 62.24896-56.84736 62.24896s-56.84224-27.91936-56.84224-62.24896h-0.17408c0-17.19808-12.7232-31.13984-28.42624-31.13984-15.6928 0-28.42112 13.94176-28.42112 31.13984 0 0.36864 0.08704 0.71168 0.1024 1.08032-0.53248 33.82784-25.78432 61.16864-56.79104 61.16864-31.34464 0-56.84736-27.91936-56.84736-62.24896 0-17.19808-12.7232-31.13984-28.42112-31.13984s-28.42112 13.94176-28.42112 31.13984c0 68.7616 50.89792 124.50816 113.6896 124.50816 34.00704 0 64.44032-16.43008 85.2736-42.34752 20.83328 25.92256 51.26656 42.34752 85.2736 42.34752 34.00704 0 64.4352-16.43008 85.2736-42.34752 20.8384 25.92256 51.27168 42.34752 85.28384 42.34752 34.00704 0 64.4352-16.43008 85.27872-42.34752 20.82816 25.92256 51.26144 42.34752 85.2736 42.34752 34.00192 0 64.44032-16.43008 85.26848-42.34752 20.84352 25.92256 51.2768 42.34752 85.28384 42.34752 61.06112 0 110.73536-52.77184 113.42336-118.912a32.0512 32.0512 0 0 0 0.53248-5.60128v0.01536z m0 163.45088v-0.01024c0-17.18784-12.7232-31.1296-28.42624-31.1296-15.68768 0-28.42112 13.94176-28.42112 31.1296h-0.25088c0 34.3296-25.50272 62.2592-56.85248 62.2592-30.8224 0-55.93088-27.01824-56.76544-60.54912 0.03584-0.56832 0.15872-1.12128 0.15872-1.69984v-0.01024c0-17.18784-12.7232-31.1296-28.43136-31.1296-15.6928 0-28.416 13.94176-28.416 31.1296h-0.26112c0 34.3296-25.4976 62.2592-56.84736 62.2592-30.80192 0-55.90016-26.98752-56.7552-60.48768 0.02048-0.5888 0.1536-1.16224 0.1536-1.76128v-0.01024c0-17.18784-12.7232-31.1296-28.42624-31.1296s-28.42112 13.94176-28.42112 31.1296h-0.27136c0 34.3296-25.49248 62.2592-56.84224 62.2592-30.78656 0-55.86432-26.95168-56.76032-60.42112 0.0256-0.62976 0.16384-1.21856 0.16384-1.82784v-0.01024c0-17.18784-12.71808-31.1296-28.416-31.1296s-28.42624 13.94176-28.42624 31.1296h-0.27648c0 34.3296-25.50272 62.2592-56.84736 62.2592s-56.84224-27.9296-56.84224-62.2592h-0.17408c0-17.18784-12.7232-31.1296-28.42624-31.1296-15.6928 0-28.42112 13.94176-28.42112 31.1296 0 0.36864 0.08704 0.71168 0.1024 1.08032-0.53248 33.82784-25.78432 61.17888-56.79104 61.17888-31.34464 0-56.84736-27.9296-56.84736-62.2592 0-17.19808-12.7232-31.13984-28.42112-31.13984s-28.42112 13.94176-28.42112 31.13984c0 68.7616 50.89792 124.5184 113.6896 124.5184 34.00704 0 64.44032-16.44032 85.2736-42.368 20.83328 25.92768 51.26656 42.368 85.2736 42.368 34.00704 0 64.4352-16.44032 85.2736-42.368 20.8384 25.92768 51.27168 42.368 85.28384 42.368 34.00704 0 64.4352-16.44032 85.27872-42.368 20.82816 25.92768 51.26144 42.368 85.2736 42.368 34.00192 0 64.44032-16.44032 85.26848-42.368 20.84352 25.92768 51.2768 42.368 85.28384 42.368 61.06112 0 110.73536-52.78208 113.42336-118.92224a32.0512 32.0512 0 0 0 0.53248-5.60128v0.01536z" fill="" p-id="3227"></path><path d="M887.36256 61.04064h28.43136v607.04768h-28.43136V61.04064z m-99.4816 0h-28.42624v607.04768h28.42624v-52.39808h63.36v-31.11936h-63.36v-54.49216h63.36V498.944h-63.36V444.45696h63.36v-31.1296h-63.36V358.84544h63.36v-31.1296h-63.36V273.2288h63.36v-31.1296h-63.36V187.61216h63.36v-31.1296h-63.36V101.99552h63.36V70.8608h-63.36v-9.82016z" fill="" p-id="3228"></path></svg>