<?xml version="1.0" standalone="no"?><!DOCTYPE svg PUBLIC "-//W3C//DTD SVG 1.1//EN" "http://www.w3.org/Graphics/SVG/1.1/DTD/svg11.dtd"><svg t="1534919457065" class="icon" style="" viewBox="0 0 1024 1024" version="1.1" xmlns="http://www.w3.org/2000/svg" p-id="16536" xmlns:xlink="http://www.w3.org/1999/xlink" width="200" height="200"><defs><style type="text/css"></style></defs><path d="M866.506 992h-715.307c-65.84 0-119.2-53.413-119.2-119.306v-715.76c0-65.893 54.16-124.933 120-124.933h480v53.333h-480c-32.933 0-67.067 38.666-67.067 71.6v715.76c0 32.96 33.36 66.32 66.266 66.32h715.307c32.933 0 72.16-34.080 72.16-67.013v-480h53.333v480c0 65.893-59.653 120-125.494 120zM480.24 732.933c-8.72 8.72-19.627 13.093-30.88 15.28l-260.987 129.094c-29.387 13.654-52.907-12.694-42.080-42.107l129.013-261.146c2.186-11.28 6.56-22.187 15.253-30.907l463.654-463.946c23.28-23.306 61.013-23.306 84.293 0l105.386 105.44c23.254 23.28 23.254 61.067 0 84.347l-463.654 463.946zM203.386 799.147c-6.827 13.733 6.347 27.866 21.040 21.040l161.147-97.627-84.64-84.694-97.547 161.28zM332.72 585.333l336.454-336.667 106.106 104.693-337.2 337.414c-39.493-39.547-94.16-94.24-105.36-105.44zM880.666 205.734l-63.227-63.28c-11.653-11.627-30.506-11.627-42.16 0l-61.706 61.76 103.867 106.96 63.227-63.28c11.627-11.627 11.627-30.506 0-42.16z" p-id="16537"></path></svg>