<?xml version="1.0" standalone="no"?><!DOCTYPE svg PUBLIC "-//W3C//DTD SVG 1.1//EN" "http://www.w3.org/Graphics/SVG/1.1/DTD/svg11.dtd"><svg t="1542953705412" class="icon" style="" viewBox="0 0 1024 1024" version="1.1" xmlns="http://www.w3.org/2000/svg" p-id="2687" xmlns:xlink="http://www.w3.org/1999/xlink" width="200" height="200"><defs><style type="text/css"></style></defs><path d="M216.064 255.68768v512.62464c0 16.7936 13.61408 30.40768 30.40768 30.40768h5.061632c16.7936 0 30.40768-13.61408 30.40768-30.40768V342.53824h2.410496l190.48448 437.90336a30.40768 30.40768 0 0 0 27.88352 18.2784h19.585024c12.10368 0 23.05536-7.17824 27.88352-18.2784l190.48448-437.90336h2.410496v425.77408c0 16.7936 13.61408 30.40768 30.40768 30.40768h5.061632c16.7936 0 30.40768-13.61408 30.40768-30.40768v-512.62464c0-16.7936-13.61408-30.40768-30.40768-30.40768h-31.609856a30.40768 30.40768 0 0 0-27.880448 18.272256l-204.94336 470.838272h-2.410496l-205.73184-470.877184A30.40768 30.40768 0 0 0 278.110208 225.28h-31.639552c-16.7936 0-30.40768 13.61408-30.40768 30.40768z" p-id="2688"></path></svg>