<?xml version="1.0" standalone="no"?><!DOCTYPE svg PUBLIC "-//W3C//DTD SVG 1.1//EN" "http://www.w3.org/Graphics/SVG/1.1/DTD/svg11.dtd"><svg t="1534909757285" class="icon" style="" viewBox="0 0 1024 1024" version="1.1" xmlns="http://www.w3.org/2000/svg" p-id="4752" xmlns:xlink="http://www.w3.org/1999/xlink" width="200" height="200"><defs><style type="text/css"></style></defs><path d="M1016.819972 482.08262c-6.946202-124.672464-59.171658-241.571894-147.697877-330.092997C780.596899 63.467497 663.694399 11.244089 539.015795 4.296863l0-1.462305-56.924477 0 0 1.459235C357.379968 11.207249 240.442676 63.412239 151.889851 151.934365 63.334979 240.457514 11.091104 357.37741 4.141832 482.08262l-1.319042 0 0 56.920384 1.318018 0c6.950296 124.735909 59.193147 241.694691 147.746996 330.254679 88.549755 88.555895 205.490118 140.800793 330.203514 147.751089l0 1.239224 27.116591 0c0.352017 0.039909 0.813528 0.076748 1.344624 0.076748 0.493234 0 0.928139-0.031722 1.306762-0.076748l27.149337 0 0-1.242294c124.68986-6.986111 241.606687-59.247382 330.139046-147.804301 88.543615-88.567151 140.761907-205.502397 147.675364-330.199421l1.460258 0L1018.2833 482.08262 1016.819972 482.08262zM394.851395 262.199701c27.626197-12.923334 56.890708-21.027919 87.239923-24.159236l0 123.555014c-60.863183 11.57257-108.781542 59.493999-120.477932 120.487142L237.975485 482.08262c4.328585-41.581024 18.215874-81.730443 40.544415-117.189026 11.534707 5.757121 24.24724 8.765641 37.275975 8.765641 46.184879 0 83.758636-37.57478 83.758636-83.759659C399.55451 280.340873 397.975549 271.060509 394.851395 262.199701zM232.035192 289.900599c0 11.58178 2.430352 23.100114 7.071046 33.662681-32.465412 47.042409-52.03512 101.543697-56.94392 158.520363L59.840388 482.083643C74.016249 256.767991 256.661056 74.163093 482.091318 59.920718l0 122.382305c-43.383066 3.686972-84.809571 15.676028-123.361609 35.7052-12.968359-7.78122-27.687596-11.865235-42.934858-11.865235C269.609972 206.142987 232.035192 243.715721 232.035192 289.900599zM361.603153 539.003004c11.633968 61.004399 59.554374 108.983133 120.488165 120.624265l0 123.555014c-128.414695-13.381775-230.809783-115.802446-244.118903-244.179278L361.603153 539.003004zM482.091318 838.926888l0 122.380258C256.659009 947.0617 74.013179 764.392334 59.839365 539.003004l122.316813 0C195.789687 698.642864 322.440202 825.287239 482.091318 838.926888zM482.091318 539.003004l0 63.878866c-30.340005-9.382695-54.301743-33.420157-63.676252-63.878866L482.091318 539.003004zM482.091318 418.273339l0 63.809281-63.671135 0C427.798784 451.668936 451.758476 427.660126 482.091318 418.273339zM539.015795 482.08262l0-63.782675c30.287817 9.44 54.214762 33.437553 63.591317 63.782675L539.015795 482.08262zM727.90584 539.003004c7.852852 21.669532 24.509207 39.324634 45.64355 48.476061-31.256888 107.121739-123.722836 184.213535-234.533594 195.706287L539.015795 659.626245c60.95835-11.653411 108.857267-59.630099 120.428813-120.623241L727.90584 539.003004zM727.937562 482.08262l-68.50421 0c-11.643178-60.988026-59.539025-108.904339-120.417557-120.486118L539.015795 238.046604c110.791315 11.486612 203.252147 88.551802 234.522338 195.636702C752.441653 442.827571 735.802694 460.455043 727.937562 482.08262zM539.015795 602.876754l0-63.87375 63.602573 0C593.252047 569.455573 569.319985 593.488942 539.015795 602.876754zM539.015795 838.923818c68.544119-5.864568 132.302235-32.44904 184.9145-77.206406 26.615171-22.641673 49.359174-49.199539 67.601654-78.936817 17.510816-28.54308 30.478152-59.389622 38.588877-91.77624 25.545816-7.470135 46.317908-27.01119 55.382355-52.001351l75.627445 0c-14.107299 225.387283-196.693778 408.057673-422.11483 422.304142L539.015795 838.923818zM791.553439 338.390987c-18.241456-29.736255-40.986483-56.292074-67.602677-78.930677-52.624545-44.75839-116.38573-71.324442-184.935989-77.156264L539.014772 59.920718c225.352491 14.243399 407.935899 196.84932 422.110737 422.161902l-75.654051 0c-9.078773-24.949228-29.832446-44.457538-55.340399-51.922557C822.026474 397.777539 809.062208 366.933043 791.553439 338.390987z" p-id="4753"></path></svg>