<?xml version="1.0" standalone="no"?><!DOCTYPE svg PUBLIC "-//W3C//DTD SVG 1.1//EN" "http://www.w3.org/Graphics/SVG/1.1/DTD/svg11.dtd"><svg t="1547644786362" class="icon" style="" viewBox="0 0 1386 1024" version="1.1" xmlns="http://www.w3.org/2000/svg" p-id="13705" xmlns:xlink="http://www.w3.org/1999/xlink" width="64.96875" height="48"><defs><style type="text/css"></style></defs><path d="M325.138987 195.058566l22.563825 21.827918a1.492711 1.492711 0 0 1-0.15972 2.27937l-25.376093 18.482752c-88.756618 64.649329-143.527184 151.331079-153.262647 244.64196l-1.930076 18.494693a1.492711 1.492711 0 0 1-1.129983 1.295674l-102.96723 25.137259a9.296606 9.296606 0 0 0-6.885877 10.971429c8.990601 42.148198 17.784163 79.53614 26.376209 112.147405 6.966484 26.452338 13.638904 50.3193 20.008304 71.590438a9.295114 9.295114 0 0 0 11.275941 6.321632l89.553726-23.637084a1.492711 1.492711 0 0 1 1.515102 0.471696l10.771406 12.591021c18.920117 22.116012 36.31916 39.518041 52.059801 52.176233l2.522683 2.030088 1.991277 2.554029c1.940525 2.48835 19.414204 14.138962 47.529422 30.072163l13.382158 7.582974a1.492711 1.492711 0 0 1 0.756804 1.298659v145.53488a9.296606 9.296606 0 0 0 9.296607 9.296607h130.13607a9.296606 9.296606 0 0 0 9.295113-9.296607v-89.601493a1.492711 1.492711 0 0 1 1.855441-1.44793l32.805317 8.215884c3.640723 0.910554 7.541178 1.776327 12.341738 2.725691 45.047044 9.933994 91.974904 15.031603 139.816303 15.031603 43.617026 0 86.478741-4.236315 127.865656-12.51937 16.552676-1.915149 30.275172-3.706402 43.615534-5.751417l30.391603-4.657259a1.492711 1.492711 0 0 1 1.719604 1.474798v86.529493a9.296606 9.296606 0 0 0 9.295113 9.296607h130.13607a9.296606 9.296606 0 0 0 9.296607-9.296607V797.766157a1.492711 1.492711 0 0 1 0.540361-1.149387l9.559324-7.918834c91.209143-75.54463 136.745796-159.015557 138.569889-251.580082 0.670227-9.190624 0.967277-16.794496 0.967277-24.429714 0-208.700455-223.387242-381.15937-501.957038-381.15937-72.339778 0-142.467359 11.662554-206.892781 33.893504l-18.437971 6.361936a1.492711 1.492711 0 0 1-1.694227-0.531405l-11.493878-15.760047c-25.21488-34.571195-46.748735-55.966227-63.010332-64.089563-16.372058-10.050426-65.004595-32.554542-74.211639-27.645014-9.205551 4.91102-0.414974 47.833936 2.53761 71.550134 8.269621 29.44821 18.329003 49.365458 29.06309 59.750251z m752.233983 628.058309v135.80688c0 35.940012-29.131755 65.076245-65.067289 65.076245h-130.137563c-35.937026 0-65.067289-29.136233-65.067288-65.076245v-23.834122c-3.39144 0.40751-6.802286 0.800093-10.232537 1.177749-44.614157 8.842822-90.72849 13.359767-137.587685 13.359767-44.724618 0-88.765574-4.115405-131.045131-12.087977v21.384583c0 35.940012-29.131755 65.076245-65.067289 65.076245h-130.137562c-35.937026 0-65.068781-29.136233-65.068782-65.076245V844.90449c-24.15207-14.14344-39.170239-24.450612-47.278647-33.138193-14.624093-11.96856-29.918414-26.827009-45.945656-44.588781L127.883151 782.180758c-33.939778 8.957761-68.866239-10.622134-78.937563-44.251429-6.557481-21.899569-13.394099-46.357644-20.51284-73.383183-8.83088-33.520327-17.822974-71.754636-26.988221-114.72084-7.34414-34.42491 14.013574-68.44828 48.204128-76.797014l66.406251-16.210846c15.243569-93.846764 68.599044-179.892618 150.6713-246.834752-9.966834-16.545213-18.187195-37.135673-24.952163-61.774367l-0.765761-3.806414c-5.078204-39.265773-5.078204-78.837551-0.005971-118.661598 1.891265-13.149294 4.687114-21.060665 8.383067-23.735604 3.697446-2.674939 12.087977-2.674939 25.173085 0 55.004921 11.895417 94.437878 24.946192 119.297492 40.097213 22.002566 11.33565 44.903743 32.73516 69.670811 64.256747 64.867265-20.129213 134.388805-30.611032 205.75235-30.611033C975.958159 75.749131 1227.009821 269.564268 1227.009821 512.686647c0 8.811475-0.332875 17.594589-0.994146 26.340385-2.333108 105.936233-52.467312 200.980152-148.642705 284.086857z" p-id="13706"></path><path d="M1262.036293 390.470904c4.791603 13.52098 14.124035 17.500548 23.93712 13.515009 10.114612-4.107942 14.37481-14.183743 8.202449-28.724245-2.537609-5.976816-6.579872-12.082006-11.670018-17.894624-17.912536 11.75958-24.040117 23.026566-20.469551 33.10386z m75.283406-33.523312c16.548198 38.988128 0.546332 76.840303-33.600933 90.709084-34.150251 13.870274-71.942717-2.249516-85.8727-41.561562-10.557948-29.797504-1.725574-55.236292 24.271487-77.059732-8.786099-3.363079-17.736397-5.128956-26.109015-4.612478-25.977656 1.600187-43.569259 9.066729-54.283941 21.760746-8.359184 9.902647-23.156431 11.093831-33.054601 2.661505-9.896676-8.430834-11.144583-23.293761-2.786892-33.196409 19.732152-23.37586 49.254997-35.907172 87.060898-38.235801 26.265749-1.616606 53.403242 8.063627 76.083498 23.569912 18.875335-8.496513 41.101808-16.31235 66.470438-23.517667 12.452198-3.537726 25.443265 3.740735 29.018309 16.255626 3.573551 12.516385-3.62281 25.52835-16.073516 29.066076-16.180991 4.597551-30.358764 9.218985-42.646764 13.828478 4.699055 6.602262 8.598017 13.43888 11.523732 20.332222z" p-id="13707"></path><path d="M400.794078 402.285714m-73.889213 0a73.889213 73.889213 0 1 0 147.778425 0 73.889213 73.889213 0 1 0-147.778425 0Z"  p-id="13708"></path></svg>