<?xml version="1.0" standalone="no"?><!DOCTYPE svg PUBLIC "-//W3C//DTD SVG 1.1//EN" "http://www.w3.org/Graphics/SVG/1.1/DTD/svg11.dtd"><svg t="1532325608720" class="icon" style="" viewBox="0 0 1024 1024" version="1.1" xmlns="http://www.w3.org/2000/svg" p-id="6794" xmlns:xlink="http://www.w3.org/1999/xlink" width="200" height="200"><defs><style type="text/css"></style></defs><path d="M246.336 940.48h-156.8C103.168 737.28 287.104 572.224 512 572.224c54.528 0 102.208 6.4 149.888 25.536l47.744-44.544h-6.912c-13.632-6.336-27.2-12.736-40.896-12.736 20.48-12.672 40.896-25.408 61.376-44.416 54.528-50.816 88.576-120.64 88.576-196.8 0-76.224-34.048-145.984-88.576-196.8C668.736 45.44 593.792 20.032 512 20.032a310.208 310.208 0 0 0-211.2 82.496c-54.464 50.88-88.576 120.576-88.576 190.464 0 76.096 34.112 145.984 88.576 196.8 20.48 19.008 40.832 31.808 61.376 44.416l-40.896 19.072a447.232 447.232 0 0 0-156.672 95.232c-47.744 44.352-81.792 88.896-102.272 145.984a401.28 401.28 0 0 0-40.896 177.728c0 19.008 13.568 31.744 34.112 31.744h190.784c20.416 0 34.048-12.736 34.048-31.744-0.064-19.072-20.416-31.744-34.048-31.744z m27.264-647.488c0-120.576 102.272-222.144 238.464-222.144 129.408 0 238.464 95.168 238.464 222.144 0 120.576-102.144 222.144-238.464 222.144-129.408 0-238.464-95.232-238.464-222.144z m688.128 501.376c-20.48-50.752-54.592-95.104-88.64-133.248l-47.744 38.144c61.376 63.488 102.336 145.984 109.056 241.28h-156.672c-20.48 0-34.048 12.608-34.048 31.744 0 19.008 13.568 31.616 34.048 31.616h190.72c20.48 0 34.048-12.608 34.048-31.616a400.064 400.064 0 0 0-40.768-177.92z m-109.056-247.488c-13.696-12.736-34.048-12.736-40.896 0L512 826.24l-129.408-120.64c-13.632-12.736-34.112-12.736-40.896 0-13.632 12.608-13.632 31.744 0 38.144L491.584 889.6c6.848 0 13.632 6.528 20.48 6.528s13.568 0 20.48-6.528l320.192-298.24a29.248 29.248 0 0 0-0.064-44.48z"  p-id="6795"></path></svg>