<?xml version="1.0" standalone="no"?><!DOCTYPE svg PUBLIC "-//W3C//DTD SVG 1.1//EN" "http://www.w3.org/Graphics/SVG/1.1/DTD/svg11.dtd"><svg t="1533868450344" class="icon" style="" viewBox="0 0 1024 1024" version="1.1" xmlns="http://www.w3.org/2000/svg" p-id="2538" xmlns:xlink="http://www.w3.org/1999/xlink" width="200" height="200"><defs><style type="text/css"></style></defs><path d="M493.568 928.768v-193.024a59.392 59.392 0 0 1 60.928-58.88v-16.896a187.904 187.904 0 0 1 46.08-138.24 133.632 133.632 0 0 1 86.528-38.4 88.064 88.064 0 0 1 26.624-44.032 92.672 92.672 0 0 0 47.616-89.088c0-47.616-38.912-47.616-38.912-47.616l-13.824-76.8A209.92 209.92 0 0 0 512 64.512h-27.648a209.92 209.92 0 0 0-195.072 161.28c-13.824 78.336-13.824 76.8-13.824 76.8s-38.912 0-38.912 47.616a92.672 92.672 0 0 0 47.616 89.088c33.28 25.088 23.552 79.36 75.264 126.976 27.648 25.6 47.616 44.544 47.616 80.896s-19.456 44.544-38.912 55.808A1429.504 1429.504 0 0 0 153.6 792.064c-61.44 41.984-58.88 64-58.88 102.4 0 61.44 78.336 69.632 78.336 69.632h332.8a56.32 56.32 0 0 1-12.288-35.328z" p-id="2539"></path><path d="M880.128 701.952h-27.648v-42.496a172.032 172.032 0 0 0-38.912-116.736 120.32 120.32 0 0 0-90.624-34.304h-12.288a113.664 113.664 0 0 0-80.384 31.744 164.352 164.352 0 0 0-38.912 120.32v42.496h-25.088a34.304 34.304 0 0 0-35.84 33.792v193.024a34.304 34.304 0 0 0 35.84 33.792h313.856a34.304 34.304 0 0 0 35.84-33.792v-194.048a34.304 34.304 0 0 0-35.84-33.792z m-89.6-42.496v42.496h-131.584v-42.496c0-57.344 22.528-87.552 65.024-88.064a56.832 56.832 0 0 1 43.008 16.896 109.056 109.056 0 0 1 22.016 70.656z m0 0" p-id="2540"></path></svg>