<?xml version="1.0" standalone="no"?><!DOCTYPE svg PUBLIC "-//W3C//DTD SVG 1.1//EN" "http://www.w3.org/Graphics/SVG/1.1/DTD/svg11.dtd"><svg t="1532657732263" class="icon" style="" viewBox="0 0 1024 1024" version="1.1" xmlns="http://www.w3.org/2000/svg" p-id="1578" xmlns:xlink="http://www.w3.org/1999/xlink" width="200" height="200"><defs><style type="text/css"></style></defs><path d="M768 512c0-141.4-114.6-256-256-256S256 370.6 256 512s114.6 256 256 256 256-114.6 256-256zM512 704c-51.3 0-99.5-20-135.8-56.2C340 611.5 320 563.3 320 512c0-51.3 20-99.5 56.2-135.8C412.5 340 460.7 320 512 320s99.5 20 135.8 56.2C684 412.5 704 460.7 704 512c0 51.3-20 99.5-56.2 135.8C611.5 684 563.3 704 512 704zM158.2 362.5c19.3-45.7 47-86.8 82.3-122.1s76.4-63 122.1-82.3c27.6-11.7 56.1-20 85.5-24.9V68.5C251.8 96.6 96.6 251.8 68.5 448h64.7c5-29.3 13.3-57.9 25-85.5zM783.5 240.5c35.3 35.3 63 76.4 82.3 122.1 11.7 27.6 20 56.1 24.9 85.5h64.7C927.4 251.8 772.2 96.6 576 68.5v64.7c29.3 4.9 57.9 13.2 85.5 24.9 45.7 19.4 86.7 47.1 122 82.4zM240.5 783.5c-35.3-35.3-63-76.4-82.3-122.1-11.7-27.6-20-56.1-24.9-85.5H68.5C96.6 772.2 251.8 927.4 448 955.5v-64.7c-29.3-4.9-57.9-13.2-85.5-24.9-45.7-19.4-86.7-47.1-122-82.4zM865.8 661.5c-19.3 45.7-47 86.8-82.3 122.1s-76.4 63-122.1 82.3c-27.6 11.7-56.1 20-85.5 24.9v64.7C772.2 927.4 927.4 772.2 955.5 576h-64.7c-5 29.3-13.3 57.9-25 85.5z" p-id="1579"></path></svg>