<?xml version="1.0" standalone="no"?><!DOCTYPE svg PUBLIC "-//W3C//DTD SVG 1.1//EN" "http://www.w3.org/Graphics/SVG/1.1/DTD/svg11.dtd"><svg t="1532314022994" class="icon" style="" viewBox="0 0 1024 1024" version="1.1" xmlns="http://www.w3.org/2000/svg" p-id="3021" xmlns:xlink="http://www.w3.org/1999/xlink" width="200" height="200"><defs><style type="text/css"></style></defs><path d="M378.88 829.44H235.52v71.68h215.04l-71.68-71.68z m-30.72-184.32H112.64V163.84h737.28v184.32l51.2-40.96 61.44 61.44v-307.2H0v706.56h348.16V645.12z m675.84 61.44V593.92l-81.92-10.24c0-10.24-10.24-20.48-10.24-30.72l51.2-71.68-92.16-81.92-61.44 51.2c-10.24-10.24-20.48-10.24-30.72-10.24l-20.48-92.16H665.6l-10.24 92.16c-10.24 0-20.48 10.24-30.72 10.24l-71.68-51.2-81.92 81.92 51.2 71.68c-10.24 10.24-10.24 20.48-10.24 30.72l-92.16 10.24v112.64L512 716.8c0 20.48 0 30.72 10.24 30.72l-51.2 71.68 81.92 81.92 71.68-51.2c10.24 0 20.48 10.24 30.72 10.24l10.24 81.92h112.64l10.24-81.92c20.48 0 30.72 0 30.72-10.24l71.68 51.2 81.92-81.92-51.2-71.68c0-10.24 10.24-20.48 10.24-30.72l92.16-10.24z m-296.96 30.72c-51.2 0-92.16-40.96-92.16-92.16s40.96-92.16 92.16-92.16 92.16 40.96 92.16 92.16c-10.24 51.2-51.2 92.16-92.16 92.16z m0 0"  p-id="3022"></path></svg>