<?xml version="1.0" standalone="no"?><!DOCTYPE svg PUBLIC "-//W3C//DTD SVG 1.1//EN" "http://www.w3.org/Graphics/SVG/1.1/DTD/svg11.dtd"><svg t="1534230280551" class="icon" style="" viewBox="0 0 1024 1024" version="1.1" xmlns="http://www.w3.org/2000/svg" p-id="6599" xmlns:xlink="http://www.w3.org/1999/xlink" width="200" height="200"><defs><style type="text/css"></style></defs><path d="M938.666667 373.333333a32 32 0 0 0 32-32V256A117.418667 117.418667 0 0 0 853.333333 138.666667H170.666667A117.418667 117.418667 0 0 0 53.333333 256v512A117.418667 117.418667 0 0 0 170.666667 885.333333h682.666666A117.418667 117.418667 0 0 0 970.666667 768v-256a32 32 0 0 0-64 0v112H117.333333V256c0-29.397333 23.936-53.333333 53.333334-53.333333h682.666666c29.397333 0 53.333333 23.936 53.333334 53.333333v85.333333c0 17.664 14.336 32 32 32z m-32 314.666667V768c0 29.397333-23.936 53.333333-53.333334 53.333333H170.666667c-29.397333 0-53.333333-23.936-53.333334-53.333333v-80h789.333334z m-128.085334-255.658667a32 32 0 0 1 0 64h-98.517333a32.128 32.128 0 0 1-27.264-15.189333l-20.181333-32.682667-75.008 124.586667a31.957333 31.957333 0 0 1-58.069334-7.253333L446.72 390.954667l-22.229333 84.437333a31.829333 31.829333 0 0 1-30.848 23.808H245.418667a32 32 0 0 1 0-64h123.562666l44.757334-170.026667a32.085333 32.085333 0 0 1 30.378666-23.850666c13.738667 0.554667 27.093333 9.002667 31.189334 22.741333l64.768 214.186667 64.896-107.776a31.872 31.872 0 0 1 27.264-15.488h0.170666c11.093333 0 21.418667 5.76 27.264 15.189333l38.357334 62.165333h80.554666zM181.333333 768a32 32 0 0 1 32-32h85.333334a32 32 0 0 1 0 64H213.333333a32 32 0 0 1-32-32z m213.333334 0a32 32 0 0 1 32-32h85.333333a32 32 0 0 1 0 64h-85.333333a32 32 0 0 1-32-32zM725.333333 768a42.666667 42.666667 0 1 1 85.333334 0 42.666667 42.666667 0 0 1-85.333334 0z" p-id="6600"></path></svg>