<?xml version="1.0" standalone="no"?><!DOCTYPE svg PUBLIC "-//W3C//DTD SVG 1.1//EN" "http://www.w3.org/Graphics/SVG/1.1/DTD/svg11.dtd"><svg t="1538205509408" class="icon" style="" viewBox="0 0 1024 1024" version="1.1" xmlns="http://www.w3.org/2000/svg" p-id="2663" xmlns:xlink="http://www.w3.org/1999/xlink" width="200" height="200"><defs><style type="text/css"></style></defs><path d="M699.473 263.93C616.862 127.112 535.434 14.913 532.12 10.178 527.386 3.788 520.048 0 512 0c-7.811 0-15.386 3.787-20.12 10.178-3.314 4.735-84.505 116.698-167.59 253.752-114.093 189.13-169.72 320.74-169.72 402.64C154.57 863.749 314.823 1024 512 1024s357.43-160.252 357.43-357.43c0-81.9-55.627-213.747-169.957-402.64zM512 974.528c-169.72 0-307.72-138.238-307.72-307.957 0-49.236 28.168-154.334 162.381-376.367 47.105-77.877 94.447-148.652 125.929-194.574L512 67.225l19.41 28.405c31.482 45.685 78.824 116.697 125.929 194.574C791.552 512.237 819.72 617.335 819.72 666.571c0.237 169.719-138 307.957-307.72 307.957z" p-id="2664"></path><path d="M328.078 721.96c22.487 91.37 112.436 138.711 116.223 140.605 3.078 1.657 6.392 2.367 9.942 2.367 8.285 0 15.623-4.497 19.647-11.835 5.444-10.652 1.42-23.908-9.468-29.589-0.71-0.473-75.984-40.24-93.5-111.963-27.222-111.49 34.56-181.792 37.163-184.632 8.285-8.995 7.575-22.724-1.183-31.01-4.025-3.786-9.469-5.917-14.913-5.917h-0.947c-5.918 0.237-11.362 2.604-15.386 7.101-3.314 3.551-80.717 89.24-47.578 224.873z" p-id="2665"></path></svg>