<?xml version="1.0" standalone="no"?><!DOCTYPE svg PUBLIC "-//W3C//DTD SVG 1.1//EN" "http://www.w3.org/Graphics/SVG/1.1/DTD/svg11.dtd"><svg t="1538206233050" class="icon" style="" viewBox="0 0 1024 1024" version="1.1" xmlns="http://www.w3.org/2000/svg" p-id="3940" xmlns:xlink="http://www.w3.org/1999/xlink" width="200" height="200"><defs><style type="text/css"></style></defs><path d="M946.566 246.242c-48.67-78.932-114.145-140.301-196.053-183.761C672.539 21.111 589.225 1.829 500.93 3.626c-89.834 1.831-173.326 25.827-250.34 71.792-76.598 45.715-137.223 107.566-181.541 184.959C23.814 339.37 1.432 424.71 1.848 515.729c0.615 134.58 52.844 263.525 151.549 360.318C253.824 974.533 375.387 1022.756 515.82 1024c91.262-1.641 176.76-24.387 255.396-71.043 80.852-47.967 144.082-113.332 189.119-195.904 41.387-75.883 61.734-157.264 61.822-251.948-0.348-87.827-25.153-177.057-75.591-258.863z m-25.931 510.321c-43.357 73.723-102.475 131.754-177.012 173.734-74.725 42.086-155.277 62.143-240.908 60.574-83.445-1.529-161.408-23.559-233.178-66.371-71.758-42.803-128.492-100.51-169.98-173.131-41.494-72.64-61.707-150.883-62.073-234.385-0.563-126.858 50.553-247.144 138.342-335.112C264.955 92.56 384.709 43.389 507.443 42.739c79.27-0.421 154.127 17.113 224.238 53.994 79.91 42.036 142.969 102.176 188.801 179.918 43.623 73.993 65.25 154.3 65.23 240.188-0.021 85.708-21.614 165.821-65.077 239.724z" p-id="3941"></path><path d="M506.776 723.389c-19.437 0-35.2-15.758-35.2-35.202 0-19.437 15.763-35.191 35.2-35.191 25.457-0.408 45.774-21.356 45.403-46.815 0-19.439 15.758-35.197 35.199-35.197 19.437 0 35.194 15.758 35.194 35.197a116.47 116.47 0 0 1-115.796 117.208z m-0.703-502.266c42.939 52.447 98.906 124.599 145.012 184.435l2.815 3.872c70.393 91.866 95.736 234.056 4.93 328.032a208.716 208.716 0 0 1-302.696 0c-82.009-85.17-79.899-217.158 5.279-328.388l29.566-39.066c38.013-49.977 80.248-105.589 115.093-148.535v-0.35z m0-86.933a40.863 40.863 0 0 0-31.327 14.78c-47.166 55.961-116.5 148.53-168.945 217.516-102.075 133.751-111.221 304.455 0 419.905a279.121 279.121 0 0 0 202.205 86.711 279.126 279.126 0 0 0 202.211-86.711c111.22-115.45 98.899-292.49 0-419.905-54.91-70.392-126.007-162.608-172.468-217.516a41.195 41.195 0 0 0-30.973-15.135l-0.703 0.355z m0 0" p-id="3942"></path></svg>