<?xml version="1.0" standalone="no"?><!DOCTYPE svg PUBLIC "-//W3C//DTD SVG 1.1//EN" "http://www.w3.org/Graphics/SVG/1.1/DTD/svg11.dtd"><svg t="1537405798304" class="icon" style="" viewBox="0 0 1024 1024" version="1.1" xmlns="http://www.w3.org/2000/svg" p-id="2824" xmlns:xlink="http://www.w3.org/1999/xlink" width="200" height="200"><defs><style type="text/css"></style></defs><path d="M115.2 44.8h25.6c64 6.4 134.4 19.2 185.6 64 57.6 44.8 76.8 115.2 83.2 185.6 0 19.2 12.8 32 19.2 51.2 38.4 83.2 64 172.8 70.4 262.4 6.4-12.8 12.8-19.2 19.2-32 0-12.8 0-25.6 6.4-32 6.4-51.2 25.6-96 51.2-134.4 38.4-64 96-121.6 166.4-153.6 38.4-19.2 83.2-25.6 128-25.6 12.8 0 19.2 6.4 19.2 19.2 0 64-25.6 121.6-57.6 172.8-38.4 64-96 115.2-160 147.2-44.8 19.2-83.2 32-128 32-12.8 12.8-25.6 32-38.4 44.8-6.4 6.4-6.4 12.8-6.4 19.2 0 70.4-6.4 140.8-25.6 204.8h12.8c6.4-12.8 12.8-25.6 19.2-32 12.8-6.4 25.6-12.8 32-25.6 12.8-25.6 38.4-44.8 70.4-38.4 12.8 0 25.6 12.8 38.4 19.2 12.8-6.4 32-12.8 44.8-6.4 25.6 6.4 38.4 25.6 51.2 44.8 12.8 6.4 25.6 6.4 32 19.2 6.4 6.4 6.4 12.8 12.8 12.8 12.8-25.6 32-44.8 64-51.2 32 0 51.2 19.2 64 51.2 25.6 6.4 44.8 32 51.2 57.6v12.8c-6.4 32-25.6 51.2-57.6 57.6H166.4c-32-6.4-57.6-25.6-57.6-57.6v-12.8c6.4-25.6 19.2-44.8 38.4-51.2 6.4 0 12.8-12.8 12.8-19.2 12.8-25.6 38.4-38.4 64-32 12.8 0 25.6 12.8 38.4 19.2 12.8-6.4 25.6-6.4 38.4-6.4 19.2 6.4 38.4 19.2 51.2 38.4 6.4 6.4 12.8 12.8 19.2 12.8 12.8 6.4 19.2 19.2 32 25.6 6.4-19.2 19.2-32 32-44.8 38.4-140.8 38.4-288 0-422.4-6.4-32-25.6-76.8-51.2-108.8-19.2-6.4-38.4 0-57.6-6.4-64-6.4-121.6-32-160-83.2-44.8-44.8-57.6-108.8-57.6-166.4V51.2l6.4-6.4z m25.6 32c0 51.2 12.8 115.2 57.6 153.6 38.4 44.8 102.4 57.6 160 64-38.4-32-76.8-57.6-115.2-83.2-6.4-6.4-6.4-19.2 0-25.6 6.4-6.4 12.8-6.4 19.2 0 38.4 25.6 76.8 57.6 108.8 89.6-6.4-51.2-25.6-102.4-64-140.8-38.4-44.8-108.8-57.6-166.4-57.6zM691.2 320c-64 57.6-115.2 134.4-134.4 217.6 25.6-32 57.6-57.6 89.6-89.6 6.4-6.4 12.8-12.8 25.6-6.4s12.8 19.2 6.4 25.6c-32 32-64 64-96 102.4 64-6.4 128-38.4 179.2-89.6 57.6-57.6 96-134.4 102.4-211.2-70.4 0-121.6 19.2-172.8 51.2z m-121.6 499.2c-6.4 6.4 0 25.6-12.8 32-12.8 6.4-25.6 0-32 12.8-6.4 6.4-6.4 19.2-6.4 25.6 12.8-12.8 25.6-19.2 44.8-19.2 32 0 57.6 19.2 64 51.2 19.2 6.4 38.4 25.6 44.8 44.8h217.6c12.8 0 25.6 0 32-12.8 12.8-12.8 6.4-38.4-6.4-44.8-6.4-6.4-25.6 0-32-12.8-6.4-6.4 0-19.2-6.4-32s-32-12.8-44.8-6.4c-12.8 6.4-12.8 19.2-19.2 25.6-12.8 12.8-32 19.2-44.8 12.8-12.8-6.4-19.2-25.6-38.4-25.6-6.4 0-19.2 0-25.6-6.4-6.4-6.4 0-19.2-6.4-32s-19.2-12.8-32-6.4c-12.8 0-19.2 19.2-32 12.8-12.8 0-12.8-19.2-25.6-25.6-6.4-12.8-25.6-6.4-38.4 6.4z m-377.6 44.8c-6.4 6.4-6.4 19.2-6.4 32-6.4 6.4-19.2 6.4-25.6 6.4-25.6 6.4-25.6 44.8 0 57.6 6.4 6.4 19.2 6.4 25.6 6.4h460.8c-6.4-12.8-25.6-12.8-38.4-19.2-12.8-6.4-6.4-25.6-12.8-32-6.4-12.8-25.6-12.8-38.4-6.4-12.8 6.4-12.8 12.8-19.2 25.6-6.4 0-12.8-6.4-12.8-6.4-6.4 0-12.8 0-12.8 6.4-12.8-6.4-19.2-19.2-19.2-32-12.8 0-25.6 0-38.4 6.4-12.8 6.4-12.8 19.2-19.2 32-12.8 12.8-25.6 19.2-38.4 12.8-12.8-6.4-19.2-19.2-25.6-25.6-12.8-6.4-25.6 0-38.4-12.8-6.4-6.4 0-19.2-6.4-25.6-6.4-12.8-32-19.2-44.8-6.4-6.4 6.4-12.8 12.8-19.2 6.4-12.8 0-12.8-19.2-25.6-25.6-12.8-12.8-38.4-12.8-44.8 0z"  p-id="2825"></path></svg>