<?xml version="1.0" standalone="no"?><!DOCTYPE svg PUBLIC "-//W3C//DTD SVG 1.1//EN" "http://www.w3.org/Graphics/SVG/1.1/DTD/svg11.dtd"><svg t="1541947494727" class="icon" style="" viewBox="0 0 1024 1024" version="1.1" xmlns="http://www.w3.org/2000/svg" p-id="1333" xmlns:xlink="http://www.w3.org/1999/xlink" width="200" height="200"><defs><style type="text/css"></style></defs><path d="M545.6 706c72.1 0 137 49.2 157.7 119.7 3.2 10.8 9.9 33.3 35.8 33.3 4.9 0 9.5-0.8 14.9-1.8 6.1-1.1 12.3-1.7 18.6-1.7 27.2 0 53.6 10.3 74.5 29 14.9 13.4 25.5 30 31.1 48.1H153.6c8.2-13.9 19.2-26.1 32.7-36.1 21.4-15.8 46.6-24.1 73-24.1h5c19.1 0 33.4-7.7 44-23.4 11.8-17.7 29.1-27.9 52.9-31 12.9-1.8 26-10 33.5-21.2 15.4-23 31.7-41.1 49.6-55.2 19.3-15.2 40.1-25.4 63.7-31.2 12.3-2.8 25-4.4 37.6-4.4m0-27c-14.6 0-29.4 1.8-44.2 5.4-56.7 14-97.3 50.1-129.2 97.6-3 4.5-9.3 8.7-14.6 9.4-30.3 4-54.8 17.4-71.8 42.7-5.8 8.7-11.9 11.4-21.6 11.4h-5.1c-65.6 0-124 43-142.8 105.3-0.8 2.7-1 5.5-1.7 8.8h794.5c0-2.8 0.1-4.7 0-6.5-4.9-70.2-67.2-124.6-136.6-124.6-7.7 0-15.4 0.6-23.3 2.1-4.6 0.8-7.8 1.3-10.2 1.3-5.8 0-6.7-3.2-10-14C704.6 734.6 628.1 679 545.6 679z m0 0" p-id="1334"></path><path d="M499.8 740c-10.1 0-17.9 7.8-17.9 17.9 0 9.8 7.9 17.9 17.5 18h0.2c9.5 0 17.7-8 18-17.6 0.3-9.7-7.4-18-17.1-18.5-0.2 0.2-0.4 0.2-0.7 0.2zM449.5 838.7c4.7 0.1 8.8-3.8 8.9-8.6 0.2-4.8-3.6-8.8-8.4-9-5.1-0.2-9.1 3.6-9.1 8.8 0 4.8 3.8 8.8 8.6 8.8zM347.1 890.1h0.1c0 0.1-0.1 0.1-0.1 0 0 0.1 0 0.1 0 0 0 0.1 0 0.1 0 0" p-id="1335"></path><path d="M346.1 869.2c-12.3 1.6-20 8.4-19.7 21.5 0.3 13 8.4 20.2 20.4 20.2h0.8c12.5-0.3 20.7-8.6 20.3-21.5-0.3-12.6-8.3-19.6-21.8-20.2zM533.2 872.9c-9.3 1.1-15.1 6.3-14.8 16.3 0.2 9.7 6.3 15.2 15.5 15.2h0.6c9.4-0.3 15.7-6.5 15.3-16.2-0.3-9.6-6.3-14.9-16.6-15.3zM769.7 869.2c-12.8 1.2-20.6 8.1-20.6 20.9 0 13 8.3 20.6 20.7 20.6h0.1c12.5 0 20.5-7.8 20.4-20.7 0.1-12.8-7.7-19.5-20.6-20.8zM630.3 808.4c-0.9 6.8-4.5 11.2-11.7 11-7.2-0.2-11.1-4.5-11-11.4 0-7.2 4.6-11.2 11.4-11.1 6.8 0.1 10.6 4.5 11.3 11.5z" p-id="1336"></path><path d="M459.3 634.1l39-240.7H364.9L564.7 64.3l-39 240.7h133.4L459.3 634.1z m-52.9-264h119.3l-24.3 149.6 116.2-191.3H498.3l24.3-149.6-116.2 191.3z" p-id="1337"></path></svg>