<?xml version="1.0" standalone="no"?><!DOCTYPE svg PUBLIC "-//W3C//DTD SVG 1.1//EN" "http://www.w3.org/Graphics/SVG/1.1/DTD/svg11.dtd"><svg t="1542072230177" class="icon" style="" viewBox="0 0 1024 1024" version="1.1" xmlns="http://www.w3.org/2000/svg" p-id="1350" xmlns:xlink="http://www.w3.org/1999/xlink" width="200" height="200"><defs><style type="text/css"></style></defs><path d="M512 960.4C264.8 960.4 63.6 759.2 63.6 512S264.8 63.6 512 63.6 960.4 264.8 960.4 512 759.2 960.4 512 960.4z m0-849.3c-221.1 0-400.9 179.8-400.9 400.9 0 221.1 179.8 400.9 400.9 400.9 221.1 0 400.9-179.9 400.9-400.9 0-221.1-179.8-400.9-400.9-400.9z" p-id="1351"></path><path d="M289.4 374.8h83.1c61.1 0 104.8 20.9 104.8 82.8 0 60-43.6 87.6-103.3 87.6h-41.4v104h-43.2V374.8z m80.5 135.7c44 0 64.9-16.8 64.9-52.9 0-36.2-22.7-48.1-66.4-48.1h-35.8v101h37.3zM530.7 374.8h43.2v111.8h117.4V374.8h43.2v274.4h-43.2V524.3H573.9v124.9h-43.2V374.8z" p-id="1352"></path></svg>