<?xml version="1.0" standalone="no"?><!DOCTYPE svg PUBLIC "-//W3C//DTD SVG 1.1//EN" "http://www.w3.org/Graphics/SVG/1.1/DTD/svg11.dtd"><svg t="1535609335948" class="icon" style="" viewBox="0 0 1024 1024" version="1.1" xmlns="http://www.w3.org/2000/svg" p-id="4194" xmlns:xlink="http://www.w3.org/1999/xlink" width="200" height="200"><defs><style type="text/css"></style></defs><path d="M933.3 606.8h-61.7V291.1c0-88.6-65.3-157.6-148.5-157.6H291.8c-81.8 0-148.5 66.7-148.5 148.5v324.9H90.7c-15.1 0-27.4 12.3-27.4 27.4s12.3 27.4 27.4 27.4h128.4v201.5c0 15.1 12.3 27.4 27.4 27.4s27.4-12.3 27.4-27.4V661.6h201.5v201.5c0 15.1 12.3 27.4 27.4 27.4 15.1 0 27.4-12.3 27.4-27.4V661.6h201.5v201.5c0 15.1 12.3 27.4 27.4 27.4 15.1 0 27.4-12.3 27.4-27.4V661.6h146.7c15.1 0 27.4-12.3 27.4-27.4 0.1-15-12.2-27.4-27.3-27.4zM198.1 281.9c0-51.6 42-93.7 93.7-93.7h431.3c53.5 0 93.7 44.3 93.7 102.8v315.7H198.1V281.9z" p-id="4195"></path><path d="M512.1 562.6H234.8c-1.1 0-2.3 0-3.4-0.1-4.2-0.5-4.8-2.1-2.5-5.6 9.1-13.6 18.1-27.3 27.3-40.9 7.1-10.5 14.3-20.9 21.4-31.4 7.9-11.7 15.8-23.4 23.5-35.2 1.4-2.1 2.8-3.2 5.2-1.5 7.5 5.3 16.2 7.3 25 7.7 10.9 0.4 22-0.1 32.9-1 10.7-0.9 19.4-6.7 26.9-13.8 6.5-6.2 12.5-13 18.8-19.4 5.4-5.5 7.9-12.3 9.5-19.7 2.5-11.3 6.8-21.8 13.3-31.6 9.4-14.2 24.1-18.9 38.8-24.1 10.4-3.7 21-2.5 30.7 0.7 15.3 5 30.4 11.5 38.6 27 10.6 20.1 27.6 34.5 45.1 47.9 9.5 7.3 21.3 11.3 33.1 14.4 17.8 4.6 35.7 3.2 53.6 2.5 11.5-0.4 22.4-3.6 33-8.1 2.6-1.1 4.4-0.2 5.8 2 5.7 8.7 11.4 17.3 17.1 26 7.1 10.8 14.3 21.6 21.5 32.4 8.3 12.4 16.5 24.9 24.9 37.3 6.6 9.6 13.4 19.1 20 28.7 0.8 1.2 1.7 3.2 1.3 4.1-0.5 1-2.6 1.4-4 1.7-1.2 0.3-2.6 0.1-3.8 0.1-92-0.1-184.2-0.1-276.3-0.1z" p-id="4196"></path></svg>