<?xml version="1.0" standalone="no"?><!DOCTYPE svg PUBLIC "-//W3C//DTD SVG 1.1//EN" "http://www.w3.org/Graphics/SVG/1.1/DTD/svg11.dtd"><svg t="1539589833215" class="icon" style="" viewBox="0 0 1024 1024" version="1.1" xmlns="http://www.w3.org/2000/svg" p-id="1788" xmlns:xlink="http://www.w3.org/1999/xlink" width="200" height="200"><defs><style type="text/css"></style></defs><path d="M626.715 240.689v176.458c16.284-35.169 46.939-55.523 79.024-52.459 22.45-1.762 44.487 8.237 60.96 27.659 16.025 25.033 23.742 57.035 21.445 89.178v303.782h-83.157V502.031c1.269-15.697-1.647-31.479-8.28-44.824-7.119-9.062-17.053-13.609-27.095-12.402-13.545-0.551-26.527 6.893-35.14 20.145-8.619 13.258-11.903 30.832-8.883 47.575v272.782h-83.537V240.689h84.663z m-241.58 0c19.184-0.706 38.241 4.191 55.69 14.307 14.675 8.44 27.582 21.226 37.631 37.2 9.405 15.549 16.22 33.43 19.942 52.459 3.949 19.313 5.982 39.201 6.021 59.139 0.495 25.046-2.829 49.985-9.783 73.438-5.983 19.553-15.503 37.053-27.848 51.023-12.454 13.646-27.09 23.711-42.897 29.574-18.179 6.912-37.085 10.291-56.068 10.013h-47.79v217.464h-86.546V240.689h151.648z m-26.343 246.556c15.509 0.765 30.558-6.433 41.771-20.025 11.668-17.124 17.386-39.494 15.801-62.001 1.281-22.245-3.651-44.358-13.918-62.472-12.051-15.702-29.087-23.599-46.284-21.458H318.53v165.483h37.632l2.63 0.473z m0 0" fill="" p-id="1789"></path></svg>