<?xml version="1.0" standalone="no"?><!DOCTYPE svg PUBLIC "-//W3C//DTD SVG 1.1//EN" "http://www.w3.org/Graphics/SVG/1.1/DTD/svg11.dtd"><svg t="1534910125236" class="icon" style="" viewBox="0 0 1024 1024" version="1.1" xmlns="http://www.w3.org/2000/svg" p-id="6232" xmlns:xlink="http://www.w3.org/1999/xlink" width="200" height="200"><defs><style type="text/css"></style></defs><path d="M963.22834625 32.1439925h-186.32668313a29.13454313 29.13454313 0 0 0 0 58.22108906h116.05819688L627.82111625 355.50382438 417.20764719 145.46632625a29.13454313 29.13454313 0 0 0-41.13394313 0L41.19444781 480.3455825a29.13454313 29.13454313 0 1 0 41.18194125 41.13394313l314.28828563-314.24028751 210.61346906 210.03749813c11.37543094 11.37543094 29.75851219 11.32743375 41.13394313 0l285.72971343-285.72971344v116.05819688a29.13454313 29.13454313 0 0 0 58.22108907 0V61.23053844a29.13454313 29.13454313 0 0 0-29.086545-29.08654594z m-104.77876125 342.41487937a29.13454313 29.13454313 0 0 0-29.13454313 29.08654594v559.07604657a29.13454313 29.13454313 0 0 0 58.22108907 0V403.64541781a29.13454313 29.13454313 0 0 0-29.08654594-29.08654594z m-230.62846875 209.60551969c16.07919563 0 29.13454313 13.0553475 29.13454406 29.13454313v349.42252968a29.13454313 29.13454313 0 0 1-58.22108906 0v-349.42252968c0-16.07919563 13.00734938-29.13454313 29.086545-29.13454313zM397.24064562 467.72221344c16.07919563 0 29.08654594 13.0553475 29.08654594 29.13454406v465.86470687a29.13454313 29.13454313 0 0 1-58.22108906 0V496.8567575c0-16.07919563 13.0553475-29.13454313 29.13454313-29.13454406z m-230.62846874 256.21119c16.07919563 0 29.13454313 13.0553475 29.13454312 29.13454312v209.65351782a29.13454313 29.13454313 0 0 1-58.22108813 0v-209.65351782c0-16.07919563 13.00734938-29.13454313 29.086545-29.13454312z"  p-id="6233"></path></svg>