<?xml version="1.0" standalone="no"?><!DOCTYPE svg PUBLIC "-//W3C//DTD SVG 1.1//EN" "http://www.w3.org/Graphics/SVG/1.1/DTD/svg11.dtd"><svg t="1535609250914" class="icon" style="" viewBox="0 0 1024 1024" version="1.1" xmlns="http://www.w3.org/2000/svg" p-id="3352" xmlns:xlink="http://www.w3.org/1999/xlink" width="200" height="200"><defs><style type="text/css"></style></defs><path d="M981.333333 64H42.666667C19.2 64 0 83.2 0 106.666667v768c0 23.466667 19.2 42.666667 42.666667 42.666666h938.666666c23.466667 0 42.666667-19.2 42.666667-42.666666V106.666667c0-23.466667-19.2-42.666667-42.666667-42.666667z m-21.333333 789.333333H64V128h896v725.333333z" p-id="3353"></path><path d="M192 725.333333c-12.8 0-21.333333 8.533333-21.333333 21.333334v64c0 12.8 8.533333 21.333333 21.333333 21.333333s21.333333-8.533333 21.333333-21.333333v-64c0-12.8-8.533333-21.333333-21.333333-21.333334z m106.666667 0c-12.8 0-21.333333 8.533333-21.333334 21.333334v64c0 12.8 8.533333 21.333333 21.333334 21.333333s21.333333-8.533333 21.333333-21.333333v-64c0-12.8-8.533333-21.333333-21.333333-21.333334z m106.666666 0c-12.8 0-21.333333 8.533333-21.333333 21.333334v64c0 12.8 8.533333 21.333333 21.333333 21.333333s21.333333-8.533333 21.333334-21.333333v-64c0-12.8-8.533333-21.333333-21.333334-21.333334z m106.666667 0c-12.8 0-21.333333 8.533333-21.333333 21.333334v64c0 12.8 8.533333 21.333333 21.333333 21.333333s21.333333-8.533333 21.333333-21.333333v-64c0-12.8-8.533333-21.333333-21.333333-21.333334z m106.666667 0c-12.8 0-21.333333 8.533333-21.333334 21.333334v64c0 12.8 8.533333 21.333333 21.333334 21.333333s21.333333-8.533333 21.333333-21.333333v-64c0-12.8-8.533333-21.333333-21.333333-21.333334z m106.666666 0c-12.8 0-21.333333 8.533333-21.333333 21.333334v64c0 12.8 8.533333 21.333333 21.333333 21.333333s21.333333-8.533333 21.333334-21.333333v-64c0-12.8-8.533333-21.333333-21.333334-21.333334z m106.666667 0c-12.8 0-21.333333 8.533333-21.333333 21.333334v64c0 12.8 8.533333 21.333333 21.333333 21.333333s21.333333-8.533333 21.333333-21.333333v-64c0-12.8-8.533333-21.333333-21.333333-21.333334z" p-id="3354"></path><path d="M640 433.066667c-4.266667 21.333333-8.533333 36.266667-17.066667 46.933333-8.533333 8.533333-19.2 12.8-32 12.8-17.066667 0-29.866667-8.533333-40.533333-23.466667-10.666667-14.933333-14.933333-40.533333-14.933333-78.933333 0-34.133333 4.266667-57.6 14.933333-70.4 10.666667-14.933333 23.466667-21.333333 40.533333-21.333333 25.6 0 40.533333 17.066667 46.933334 49.066666l66.133333-14.933333c-8.533333-34.133333-21.333333-59.733333-40.533333-74.666667-19.2-14.933333-42.666667-23.466667-72.533334-23.466666-36.266667 0-66.133333 14.933333-89.6 42.666666s-34.133333 68.266667-34.133333 121.6c0 44.8 10.666667 83.2 29.866667 113.066667 19.2 32 51.2 46.933333 91.733333 46.933333 64 0 104.533333-38.4 117.333333-113.066666l-66.133333-12.8z" p-id="3355"></path><path d="M362.666667 256c-36.266667 0-64 27.733333-64 64s27.733333 64 64 64 64-27.733333 64-64-27.733333-64-64-64z m0 85.333333c-12.8 0-21.333333-8.533333-21.333334-21.333333s8.533333-21.333333 21.333334-21.333333 21.333333 8.533333 21.333333 21.333333-8.533333 21.333333-21.333333 21.333333z" p-id="3356"></path><path d="M21.333333 640h960v64H21.333333z" p-id="3357"></path></svg>