<?xml version="1.0" standalone="no"?><!DOCTYPE svg PUBLIC "-//W3C//DTD SVG 1.1//EN" "http://www.w3.org/Graphics/SVG/1.1/DTD/svg11.dtd"><svg t="1537405870579" class="icon" style="" viewBox="0 0 1024 1024" version="1.1" xmlns="http://www.w3.org/2000/svg" p-id="3136" xmlns:xlink="http://www.w3.org/1999/xlink" width="200" height="200"><defs><style type="text/css"></style></defs><path d="M836.608 662.528c-14.848 0-28.672 3.584-40.96 9.216l-137.216-162.816 133.632-158.208c13.312 7.168 28.672 11.264 45.056 11.264 53.76 0 97.28-43.52 97.28-97.28 0-53.76-43.52-97.28-97.28-97.28s-97.28 43.52-97.28 97.28c0 18.944 5.632 36.864 14.848 51.712l-129.536 153.6-99.328-117.76c-5.12-5.632-11.776-9.216-19.968-9.216-7.68 0-14.848 3.584-19.456 9.216l-99.328 121.856-125.952-144.896c15.36-17.408 24.576-39.936 24.576-64.512 0-53.76-43.52-97.28-97.28-97.28s-97.28 43.52-97.28 97.28c0 53.76 43.52 97.28 97.28 97.28 10.24 0 20.48-1.536 29.696-4.608l136.704 156.672-128 156.672c-11.776-5.12-24.576-7.68-37.888-7.68-53.76 0-97.28 43.52-97.28 97.28s43.52 97.28 97.28 97.28 97.28-43.52 97.28-97.28c0-22.016-7.168-41.984-19.456-57.856l121.856-148.992 33.792 38.912c-8.704 14.336-13.312 31.232-13.312 49.152 0 53.76 43.52 97.28 97.28 97.28s97.28-43.52 97.28-97.28c0-18.432-5.12-35.84-14.336-50.688l35.328-41.984 131.584 156.16c-10.752 15.872-17.408 34.816-17.408 55.296 0 53.76 43.52 97.28 97.28 97.28s97.28-43.52 97.28-97.28S890.368 662.528 836.608 662.528zM551.936 555.008c-13.824-7.168-29.184-11.776-46.08-11.776-17.408 0-33.28 4.608-47.616 12.288l-37.888-43.52 85.504-104.448 84.992 100.864L551.936 555.008z" p-id="3137"></path></svg>