<?xml version="1.0" standalone="no"?><!DOCTYPE svg PUBLIC "-//W3C//DTD SVG 1.1//EN" "http://www.w3.org/Graphics/SVG/1.1/DTD/svg11.dtd"><svg t="1537405908460" class="icon" style="" viewBox="0 0 1024 1024" version="1.1" xmlns="http://www.w3.org/2000/svg" p-id="3829" xmlns:xlink="http://www.w3.org/1999/xlink" width="200" height="200"><defs><style type="text/css"></style></defs><path d="M955.63776 543.15008c-69.28384-92.93824-236.58496-89.53856-309.16608-83.06688a143.40096 143.40096 0 0 0-22.97856-40.2432c33.66912-21.11488 84.70528-35.5328 104.46848-39.17824 110.12096-20.29568 172.17536-89.04704 166.13376-183.88992-6.63552-103.95648-121.71264-166.07232-229.25312-166.07232-57.42592 0-108.58496 17.65376-143.99488 49.74592-77.96736 70.7584-69.5296 212.64384-56.95488 293.31456a143.36 143.36 0 0 0-46.51008 26.2144c-19.29216-34.32448-31.31392-84.29568-34.14016-103.89504-15.42144-106.65984-77.96736-171.06944-172.99456-172.93312H205.78304c-61.97248 1.67936-117.8624 44.91264-149.64736 115.65056-39.66976 88.22784-31.68256 192.28672 19.29216 253.11232C116.08064 540.07808 187.12576 564.49024 286.72 564.49024c33.03424 0 63.81568-2.82624 87.04-5.7344a147.72224 147.72224 0 0 0 30.5152 50.688c-34.67264 17.63328-82.71872 28.38528-101.08928 30.6176-110.91968 14.66368-176.45568 79.99488-175.34976 174.7968C129.04448 921.6 250.18368 993.28 362.51648 993.28c52.14208-0.04096 97.73056-14.72512 131.87072-42.45504 86.97856-71.10656 80.01536-229.35552 70.67648-305.50016a145.08032 145.08032 0 0 0 44.87168-28.672c15.83104 33.4848 24.94464 80.1792 27.21792 103.48544 9.03168 111.84128 71.49568 180.4288 171.52 183.48032 61.48096 0 118.96832-41.41056 153.7024-110.73536 35.96288-71.84384 47.80032-176.90624-6.73792-249.73312z m-47.0016 222.76096c-24.28928 48.57856-61.6448 77.53728-102.42048 77.53728h-0.06144c-86.15936-2.68288-105.3696-81.48992-109.1584-129.04448-0.53248-4.79232-12.36992-119.88992-64.69632-170.00448a30.5152 30.5152 0 0 0-25.2928-7.9872 30.0032 30.0032 0 0 0-21.77024 15.2576 85.05344 85.05344 0 0 1-59.00288 42.63936 30.02368 30.02368 0 0 0-24.12544 34.32448c5.69344 35.20512 30.22848 213.64736-45.69088 275.59936-22.9376 18.6368-56.25856 28.89728-93.92128 28.95872-81.94048 0-173.81376-48.92672-174.57152-119.02976-1.06496-85.46304 76.73856-108.46208 123.76064-114.688 1.06496-0.12288 112.68096-15.19616 163.71712-67.64544a30.0032 30.0032 0 0 0-6.63552-46.98112 85.6064 85.6064 0 0 1-42.41408-63.488 30.08512 30.08512 0 0 0-29.7984-26.39872c-1.6384 0-3.33824 0.1024-4.97664 0.4096-20.04992 3.33824-60.35456 8.97024-104.89856 8.97024-55.72608 0-129.6384-8.84736-165.29408-51.15904-36.1472-43.04896-40.52992-122.88-10.50624-189.82912 10.60864-23.63392 41.30816-78.72512 100.352-80.36352 82.59584 0 105.94304 76.20608 112.57856 122.18368 0.18432 1.1264 17.59232 114.09408 71.22944 163.49184 6.38976 5.9392 15.48288 8.8064 23.81824 7.68a29.9008 29.9008 0 0 0 21.42208-13.02528 85.07392 85.07392 0 0 1 61.35808-36.90496 30.02368 30.02368 0 0 0 26.2144-35.65568c-9.27744-46.94016-34.2016-204.73856 33.32096-265.91232 24.33024-22.05696 61.11232-34.2016 103.64928-34.2016 78.09024 0 165.02784 42.00448 169.30816 109.81376 5.46816 85.46304-70.98368 112.51712-117.71904 121.18016-1.1264 0.18432-113.0496 21.95456-160.50176 76.9024a30.04416 30.04416 0 0 0 4.97664 43.8272 83.968 83.968 0 0 1 33.56672 54.96832 30.24896 30.24896 0 0 0 33.62816 25.04704 683.43808 683.43808 0 0 1 83.456-5.2224c96.62464 0 166.23616 21.93408 195.9936 61.78816 33.36192 44.76928 33.85344 121.63072 1.10592 186.96192z" p-id="3830"></path><path d="M511.85664 473.9072a38.01088 38.01088 0 1 0 0 76.02176 38.01088 38.01088 0 0 0 0-76.02176z" p-id="3831"></path></svg>