<?xml version="1.0" standalone="no"?><!DOCTYPE svg PUBLIC "-//W3C//DTD SVG 1.1//EN" "http://www.w3.org/Graphics/SVG/1.1/DTD/svg11.dtd"><svg t="1534919380650" class="icon" style="" viewBox="0 0 1024 1024" version="1.1" xmlns="http://www.w3.org/2000/svg" p-id="13418" xmlns:xlink="http://www.w3.org/1999/xlink" width="200" height="200"><defs><style type="text/css"></style></defs><path d="M837.340251 867.812775c49.223075 0 75.773777-46.856168 75.773777-90.943268L913.114029 246.404969c0-44.086078-26.551726-90.943268-75.773777-90.943268L185.617 155.461701c-47.447639 0-75.773777 28.326139-75.773777 75.773777l0 545.633005c0 44.087101 26.551726 90.943268 75.773777 90.943268l651.722228 0M837.340251 913.272129 185.617 913.272129c-72.200392 0-121.257691-63.089897-121.257691-136.402623L64.359308 231.236502c0-73.312726 49.057299-121.234155 121.257691-121.234155l651.722228 0c72.200392 0 121.256668 63.088874 121.256668 136.402623l0 530.464537C958.595896 850.182232 909.540643 913.272129 837.340251 913.272129L837.340251 913.272129 837.340251 913.272129z" p-id="13419"></path><path d="M261.40101 867.803565 215.937562 867.803565 215.937562 155.458631 261.40101 155.458631 261.40101 867.803565Z" p-id="13420"></path><path d="M807.025828 867.803565 761.562381 867.803565 761.562381 155.458631 807.025828 155.458631 807.025828 867.803565Z" p-id="13421"></path><path d="M412.966984 649.474025c38.512129-26.951839 99.531877-70.049403 141.447523-99.673094 21.017686-14.846126 40.024575-28.274974 54.351885-38.369889-45.699832-32.626072-142.772704-101.280708-195.800431-138.02047L412.966984 649.474025M389.089158 716.261127c-11.938913 0-21.609157-10.307763-21.609157-23.074531 0-13.026688 0-344.646458 0-363.560226 0-13.925151 10.473539-22.48306 21.703301-22.48306 3.783163 0 7.659447 0.970094 11.254322 3.025916 19.457144 11.159154 243.673765 170.313967 259.111362 181.804672 12.104689 9.007141 15.579837 28.700669 0 39.387056-21.939685 15.059997-245.044995 173.482123-258.449283 181.40149C397.033084 715.173352 392.942929 716.261127 389.089158 716.261127L389.089158 716.261127 389.089158 716.261127z" p-id="13422"></path><path d="M246.246869 382.819872 109.834013 382.819872 109.834013 337.332888 246.246869 337.332888 246.246869 382.819872Z" p-id="13423"></path><path d="M246.246869 549.516452 109.834013 549.516452 109.834013 504.054027 246.246869 504.054027 246.246869 549.516452Z" p-id="13424"></path><path d="M246.246869 716.237591 109.834013 716.237591 109.834013 670.774143 246.246869 670.774143 246.246869 716.237591Z" p-id="13425"></path><path d="M913.129378 382.819872 776.717546 382.819872 776.717546 337.332888 913.129378 337.332888 913.129378 382.819872Z" p-id="13426"></path><path d="M913.129378 549.516452 776.717546 549.516452 776.717546 504.054027 913.129378 504.054027 913.129378 549.516452Z" p-id="13427"></path><path d="M913.129378 716.237591 776.717546 716.237591 776.717546 670.774143 913.129378 670.774143 913.129378 716.237591Z" p-id="13428"></path></svg>