<?xml version="1.0" standalone="no"?><!DOCTYPE svg PUBLIC "-//W3C//DTD SVG 1.1//EN" "http://www.w3.org/Graphics/SVG/1.1/DTD/svg11.dtd"><svg t="1538206273372" class="icon" style="" viewBox="0 0 1024 1024" version="1.1" xmlns="http://www.w3.org/2000/svg" p-id="4651" xmlns:xlink="http://www.w3.org/1999/xlink" width="200" height="200"><defs><style type="text/css"></style></defs><path d="M511.201248 1.597504C230.040562 1.597504 0 230.040562 0 512.798752c0 281.160686 228.443058 511.201248 511.201248 511.201248s511.201248-228.443058 511.201248-511.201248S793.959438 1.597504 511.201248 1.597504z m0 979.269891C254.00312 980.867395 43.132605 769.99688 43.132605 511.201248S254.00312 43.132605 511.201248 43.132605c258.795632 0 469.666147 210.870515 469.666147 469.666147S769.99688 980.867395 511.201248 980.867395z" fill="" p-id="4652"></path><path d="M646.98908 530.371295V228.443058c-3.195008-41.535101-33.547582-119.812793-135.787832-119.812793s-132.592824 73.485179-135.787831 115.020281v306.720749c-51.120125 39.937598-84.667707 102.24025-84.667707 172.530421 0 121.410296 99.045242 220.455538 220.455538 220.455538S731.656786 824.312012 731.656786 702.901716c0-70.290172-31.950078-132.592824-84.667706-172.530421zM416.948518 225.24805c0-3.195008 6.390016-75.082683 94.25273-75.082683 86.265211 0 94.25273 71.887676 94.25273 78.277691v274.770671c-22.365055-11.182527-47.925117-17.572543-73.485179-20.767551V225.24805c0-11.182527-9.585023-20.767551-20.767551-20.767551-11.182527 0-20.767551 9.585023-20.767551 20.767551v258.795632c-25.560062 3.195008-51.120125 9.585023-73.485179 20.76755V225.24805zM511.201248 611.843994c49.522621 0 91.057722 39.937598 91.057722 91.057722 0 49.522621-39.937598 91.057722-91.057722 91.057722-49.522621 0-91.057722-39.937598-91.057722-91.057722 1.597504-49.522621 41.535101-91.057722 91.057722-91.057722z m0 269.978159c-99.045242 0-178.920437-79.875195-178.920437-178.920437 0-91.057722 68.692668-167.73791 158.152886-177.322933v47.925117c-62.302652 9.585023-110.227769 63.900156-110.227769 129.397816 0 71.887676 59.107644 130.99532 130.99532 130.99532 71.887676 0 130.99532-59.107644 130.99532-130.99532 0-65.49766-47.925117-119.812793-110.227769-129.397816v-47.925117c89.460218 9.585023 158.152886 86.265211 158.152886 177.322933 0 99.045242-79.875195 178.920437-178.920437 178.920437zM763.606864 223.650546h-65.49766c-11.182527 0-20.767551 9.585023-20.76755 20.767551 0 11.182527 9.585023 20.767551 20.76755 20.76755h65.49766c11.182527 0 20.767551-9.585023 20.767551-20.76755 0-11.182527-9.585023-20.767551-20.767551-20.767551zM763.606864 295.538222h-65.49766c-11.182527 0-20.767551 9.585023-20.76755 20.76755 0 11.182527 9.585023 20.767551 20.76755 20.767551h65.49766c11.182527 0 20.767551-9.585023 20.767551-20.767551 0-11.182527-9.585023-20.767551-20.767551-20.76755z" fill="" p-id="4653"></path><path d="M763.606864 367.425897h-65.49766c-11.182527 0-20.767551 9.585023-20.76755 20.767551 0 11.182527 9.585023 20.767551 20.76755 20.76755h65.49766c11.182527 0 20.767551-9.585023 20.767551-20.76755 0-11.182527-9.585023-20.767551-20.767551-20.767551zM763.606864 440.911076h-65.49766c-11.182527 0-20.767551 9.585023-20.76755 20.767551s9.585023 20.767551 20.76755 20.767551h65.49766c11.182527 0 20.767551-9.585023 20.767551-20.767551s-9.585023-20.767551-20.767551-20.767551z" fill="" p-id="4654"></path></svg>